Usar VLCPlayer, Gomplayer o similar para reproducir el video HD con los subtítulos srt.

Capturas
 
http://korraflow.site11.com/kapturas/1x07captura1.png 
http://korraflow.site11.com/kapturas/1x07captura2.png 
http://korraflow.site11.com/kapturas/1x07captura3.png



Video INFO:

General
Complete name                    : estadoavatar.1x07 - The Aftermath - The Legend of Korra.mp4
Format                           : MPEG-4
Format profile                   : Base Media / Version 2
Codec ID                         : mp42
File size                        : 285 MiB
Duration                         : 23mn 55s
Overall bit rate                 : 1 664 Kbps
Encoded date                     : UTC 2012-05-22 11:55:16
Tagged date                      : UTC 2012-05-22 12:02:54
Writing application              : HandBrake 0.9.6 2012022800

Video
ID                               : 1
Format                           : AVC
Format/Info                      : Advanced Video Codec
Format profile                   : Main@L3.1
Format settings, CABAC           : Yes
Format settings, ReFrames        : 4 frames
Format settings, GOP             : M=4, N=24
Codec ID                         : avc1
Codec ID/Info                    : Advanced Video Coding
Duration                         : 23mn 55s
Bit rate mode                    : Variable
Bit rate                         : 1 500 Kbps
Width                            : 1 280 pixels
Height                           : 720 pixels
Display aspect ratio             : 16:9
Frame rate mode                  : Variable
Frame rate                       : 23.976 fps
Minimum frame rate               : 23.974 fps
Maximum frame rate               : 23.981 fps
Color space                      : YUV
Chroma subsampling               : 4:2:0
Bit depth                        : 8 bits
Scan type                        : Progressive
Bits/(Pixel*Frame)               : 0.068
Stream size                      : 257 MiB (90%)
Writing library                  : x264 core 120

Audio
ID                               : 2
Format                           : AAC
Format/Info                      : Advanced Audio Codec
Format profile                   : LC
Codec ID                         : 40
Duration                         : 23mn 55s
Bit rate mode                    : Variable
Bit rate                         : 160 Kbps
Maximum bit rate                 : 306 Kbps
Channel(s)                       : 2 channels
Channel positions                : Front: L R
Sampling rate                    : 44.1 KHz
Compression mode                 : Lossy
Stream size                      : 27.4 MiB (10%)
Language                         : English
Encoded date                     : UTC 2012-05-22 11:55:16
Tagged date                      : UTC 2012-05-22 12:02:53